<svg xmlns="http://www.w3.org/2000/svg" viewBox="0 0 588.50665 135.46667" height="135.467" width="588.507"><defs><clipPath id="a"><path d="M0 1015.98V0h4413.85v1015.98H0z"/></clipPath></defs><g clip-path="url(#a)" transform="matrix(.133 0 0 -.133 0 135.467)"><path d="M147.504 111.797c-62.633 0-107.7 14.637-147.504 55.02l42.145 41.562c30.437-30.45 63.8-39.81 106.527-39.81 54.437 0 86.047 23.42 86.047 63.81 0 18.14-5.27 33.36-16.4 43.3-10.54 9.95-21.07 14.04-45.66 17.56l-49.17 7.02c-33.96 4.68-60.88 16.38-79.02 33.36-20.49 19.32-30.44 45.66-30.44 79.6 0 72.58 52.68 122.33 139.31 122.33 55.02 0 93.65-14.05 129.35-47.41l-40.39-39.81c-25.76 24.59-55.61 32.194-90.728 32.194-49.166 0-76.09-28.094-76.09-64.97 0-15.214 4.68-28.683 15.802-38.63 10.534-9.365 27.51-16.385 46.83-19.314l47.41-7.027c38.63-5.85 60.29-15.22 77.844-31.02 22.83-19.9 33.95-49.75 33.95-85.46 0-76.67-62.63-122.337-149.847-122.337m316.06 3.516c-55.6 0-81.36 39.804-81.36 82.53v163.31h-33.94v45.66h33.95v90.136h59.71V406.8h57.36v-45.65H441.9V200.77c0-21.66 10.53-34.532 32.78-34.532h24.58v-50.926h-35.7m268.663 131.114H662.57c-35.125 0-53.265-15.8-53.265-42.727 0-26.94 16.97-42.15 54.432-42.15 22.82 0 39.8 1.76 55.6 16.97 8.776 8.78 12.874 22.83 12.874 43.9v23.99zm1.17-131.114v26.922c-21.66-21.66-42.143-30.437-79.018-30.437-36.88 0-61.46 8.777-79.61 26.933-15.22 15.8-23.41 38.622-23.41 63.797 0 49.746 34.53 85.46 102.43 85.46h78.433v21.064c0 37.47-18.73 55.61-64.97 55.61-32.78 0-48.584-7.6-64.97-28.68l-39.22 36.88c28.094 32.78 57.364 42.74 106.53 42.74 81.36 0 122.334-34.53 122.334-101.85V115.31H733.39m267.486-3.513c-66.725 0-132.283 40.976-132.283 152.187 0 111.21 65.558 151.602 132.282 151.602 40.98 0 69.66-11.71 97.75-41.563l-40.97-39.796c-18.73 20.48-33.36 28.097-56.78 28.097-22.82 0-42.143-9.367-55.018-26.347-12.88-16.387-17.562-37.46-17.562-71.993 0-34.53 4.686-56.19 17.565-72.578 12.875-16.972 32.196-26.34 55.017-26.34 23.42 0 38.05 7.61 56.78 28.098l40.97-39.22c-28.09-29.854-56.77-42.147-97.75-42.147m353.518 3.515l-83.12 136.96-43.9-49.745v-87.215h-59.7V532.07h59.7V275.105L1342.7 412.07h72.57l-103.01-116.476 115.89-180.282h-73.75" fill="#100f0d"/><path d="M1489.59 115.312V532.07h274.52v-72.59h-193.16v-97.742h164.48v-72.59h-164.48V187.89h193.16v-72.578h-274.52m515.66 0l-56.19 91.31-55.61-91.31h-91.31l105.36 155.692-101.26 149.258h91.31l51.51-87.207 52.09 87.207h91.31L1991.2 271.004l105.36-155.692h-91.31m250.51-3.515c-60.87 0-136.38 32.78-136.38 156.29 0 123.495 75.51 155.69 136.38 155.69 42.15 0 73.75-12.88 100.68-40.976l-51.51-51.5c-15.81 16.98-29.27 24-49.17 24-18.14 0-32.19-6.44-43.31-19.9-11.71-14.63-16.98-35.11-16.98-67.3 0-32.2 5.27-53.27 16.98-67.9 11.12-13.46 25.17-19.9 43.31-19.9 19.9 0 33.36 7.03 49.17 24l51.51-50.91c-26.93-28.1-58.53-41.56-100.68-41.56m334.8 3.517v186.13c0 40.39-25.76 53.845-49.76 53.845-23.99 0-49.17-14.043-49.17-53.85V115.31h-76.09v416.76h76.09V392.168c20.49 21.074 46.24 31.61 73.17 31.61 66.72 0 101.85-46.825 101.85-111.212V115.312h-76.09m312.55 128.77h-60.3c-27.51 0-42.72-12.87-42.72-34.53 0-21.075 14.04-35.118 43.89-35.118 21.08 0 34.55 1.757 48 14.628 8.2 7.606 11.13 19.903 11.13 38.633v16.387zm1.75-128.77v26.336c-20.48-20.488-39.8-29.265-74.92-29.265-34.54 0-59.71 8.777-77.85 26.922-16.39 16.984-25.17 41.562-25.17 68.488 0 48.582 33.36 88.387 104.19 88.387h72v15.215c0 33.37-16.39 48-56.78 48-29.27 0-42.73-7.024-58.54-25.168l-48.58 47.414c29.85 32.78 59.12 42.14 110.05 42.14 85.46 0 129.94-36.29 129.94-107.69V115.32h-74.34m333.62-.003V299.69c0 41.56-26.34 55.604-50.34 55.604-24 0-50.92-14.043-50.92-55.605V115.31h-76.1v304.95h74.35v-28.094c19.89 21.074 47.99 31.61 76.08 31.61 30.44 0 55.03-9.95 72-26.923 24.58-24.582 31.02-53.26 31.02-86.632V115.31h-76.09m270.99 239.98c-45.07 0-49.74-38.632-49.74-79.015 0-40.39 4.67-79.61 49.74-79.61 45.08 0 50.34 39.22 50.34 79.61 0 40.383-5.26 79.016-50.34 79.016zM3501.87 0c-46.83 0-79.02 9.36-110.63 39.805l47.41 47.996c16.98-16.38 33.95-23.41 59.71-23.41 45.65 0 61.45 32.2 61.45 63.22v31.02c-19.9-22.23-42.72-30.43-72.57-30.43-29.86 0-55.61 9.96-72.59 26.93-28.67 28.68-31.02 67.89-31.02 121.16 0 53.26 2.35 91.9 31.02 120.58 16.98 16.98 43.32 26.93 73.17 26.93 32.19 0 53.26-8.78 74.34-32.19v28.68h73.75V126.44c0-73.17-52.1-126.44-134.04-126.44m388.05 328.953c-8.19 18.145-25.16 31.613-50.92 31.613-25.75 0-42.73-13.468-50.92-31.613-4.68-11.12-6.44-19.316-7.03-32.773h115.9c-.58 13.457-2.34 21.652-7.03 32.773zm-108.87-84.87c0-39.22 24.01-67.892 66.73-67.892 33.36 0 49.76 9.36 69.08 28.68l46.24-45.07c-31.03-31.01-60.88-47.99-115.9-47.99-71.99 0-141.07 32.78-141.07 156.29 0 99.5 53.85 155.69 132.87 155.69 84.88 0 132.88-62.04 132.88-145.74v-33.96h-190.83" fill="#2d4d9b"/><path d="M3981.75 693h432.102v88.87H3981.75V693z" fill="#4068bb"/><path d="M3981.75 807.46h432.102v88.892H3981.75v-88.89z" fill="#5ca3de"/><path d="M4345.28 1015.98h-295.03c-37.84 0-68.5-31.808-68.5-71v-23.082h432.1v23.082c0 39.192-30.7 71-68.57 71" fill="#9adff7"/><path d="M3981.75 667.957V644.88c0-39.192 30.66-71.005 68.5-71.005h184.54V480.02l90.57 93.855h19.92c37.87 0 68.57 31.813 68.57 71.004v23.07h-432.1" fill="#2d4e9b"/><path d="M4062.81 573.875h-12.56c-37.84 0-68.5 31.813-68.5 71.004v23.07h171.84l-90.78-94.08" fill="#455ca6"/><path d="M4288.19 807.46h-306.44v88.892h392.2l-85.76-88.89" fill="#73aee2"/><path d="M4177.75 693h-196v88.87h281.76L4177.75 693" fill="#5877c4"/></g></svg>