<svg xmlns="http://www.w3.org/2000/svg" viewBox="0 0 588.54669 102.02667" height="102.027" width="588.547"><path d="M185.806 100.926c-7.678 0-13.69-1.787-18.685-6.674l4.44-4.512c3.61 3.854 8.51 5.358 14.16 5.358 7.5 0 12.12-2.726 12.12-8.18 0-4.04-2.31-6.297-7.58-6.767l-7.49-.65c-8.88-.75-13.59-4.79-13.59-12.41 0-8.46 7.03-13.53 16.74-13.53 6.48 0 12.31 1.6 16.37 4.98l-4.34 4.42c-3.23-2.53-7.4-3.66-12.11-3.66-6.66 0-10.17 2.92-10.17 7.62 0 3.95 2.226 6.3 7.96 6.77l7.307.66c7.954.75 13.41 3.86 13.41 12.5 0 8.94-7.493 14.11-18.5 14.11m54.49-34.69c-1.755-4.23-5.825-6.95-10.635-6.95s-8.88 2.728-10.64 6.958c-1.02 2.53-1.2 3.94-1.39 7.703h24.05c-.183-3.76-.37-5.17-1.39-7.71zm-22.66 12.78c0 10.16 4.72 15.98 13.416 15.98 5.27 0 8.327-1.59 11.93-5.26l4.536 4.04c-4.626 4.7-8.88 7.14-16.65 7.14-12.026 0-19.89-7.33-19.89-23.68 0-14.945 7.13-23.69 18.69-23.69 11.75 0 18.687 8.65 18.687 22.376v3.1h-30.71m65.4-16.07c-2.496-2.54-4.346-3.384-7.86-3.384-6.66 0-10.917 5.36-10.917 12.41v28.39h-6.66V54.11h6.66v5.64c2.494-3.854 7.49-6.205 12.76-6.205 4.35 0 7.68 1.034 10.92 4.326l-4.903 5.08m29.717 37.41h-5.914L290.2 54.11h7.214l12.394 37.13 12.486-37.13h7.216l-16.744 46.25m48.376-34.12c-1.757-4.23-5.828-6.958-10.637-6.958-4.81 0-8.88 2.728-10.64 6.958-1.015 2.535-1.2 3.945-1.385 7.706h24.05c-.184-3.76-.37-5.17-1.388-7.71zM338.48 79.02c0 10.153 4.718 15.98 13.412 15.98 5.274 0 8.326-1.597 11.933-5.262l4.53 4.042c-4.622 4.7-8.88 7.144-16.65 7.144-12.022 0-19.89-7.332-19.89-23.688 0-14.947 7.128-23.69 18.69-23.69 11.747 0 18.684 8.65 18.684 22.374v3.1h-30.71m65.4-16.07c-2.5-2.538-4.35-3.385-7.86-3.385-6.66 0-10.92 5.36-10.92 12.408v28.39h-6.66v-46.25h6.66v5.64c2.49-3.854 7.49-6.205 12.76-6.205 4.35 0 7.68 1.034 10.91 4.326l-4.9 5.075m27.74-.85v38.26H419.6V62.1h-4.995v-9.306h4.994v-6.11c0-6.956 4.25-14.006 14.06-14.006h6.84v10.34h-4.72c-2.87 0-4.17 1.597-4.17 4.42v5.355h8.88V62.1h-8.88m39.31 17.577h-9.52c-4.35 0-6.76 2.07-6.76 5.547 0 3.384 2.22 5.64 6.94 5.64 3.32 0 5.45-.282 7.58-2.35 1.29-1.222 1.75-3.196 1.75-6.205v-2.63zm.27 20.68v-4.23c-3.24 3.29-6.29 4.7-11.84 4.7-5.46 0-9.44-1.41-12.3-4.322-2.59-2.73-3.98-6.678-3.98-11 0-7.804 5.27-14.197 16.46-14.197h11.37v-2.44c0-5.357-2.59-7.707-8.97-7.707-4.62 0-6.75 1.13-9.25 4.05L445 57.6c4.72-5.26 9.346-6.76 17.39-6.76 13.51 0 20.537 5.83 20.537 17.3v32.25H471.2m48.147 0v-4.52c-3.145 3.39-7.585 5.08-12.026 5.08-4.8 0-8.69-1.59-11.37-4.32-3.88-3.95-4.9-8.55-4.9-13.91V51.38h12.02v29.61c0 6.674 4.17 8.93 7.96 8.93 3.8 0 8.05-2.256 8.05-8.93V51.38h12.02v48.975h-11.75m34.52 0c-9.89 0-14.06-7.05-14.06-14.006V33.43h12.03v52.173c0 2.914 1.21 4.418 4.26 4.418h4.63v10.34h-6.85m26.63 0c-9.8 0-13.97-7.05-13.97-14V62.11h-5.08V52.8h5.087V38.32h12.024v14.476h8.51v9.307h-8.51v23.5c0 2.82 1.294 4.42 4.163 4.42h4.343v10.34h-6.56" fill="#201c1d"/><path d="M0 36.076h69.11V22.33H0v13.746z" fill="#a4a6a9"/><path d="M0 58.34h69.11V44.594H0V58.34z" fill="#7b7d82"/><path d="M0 79.08h69.11V65.334H0V79.08z" fill="#505155"/><path d="M.002 14.005H69.11V.26H.002v13.745z" fill="#d3d3d4"/><path d="M0 101.383h69.11V87.64H0v13.743z" fill="#211c1d"/><path d="M77.467 36.076h29.444V22.33H77.47v13.746z" fill="#971d24"/><path d="M77.467 58.34h29.444V44.594H77.47V58.34z" fill="#5e131b"/><path d="M77.467 79.08h29.444V65.334H77.47V79.08z" fill="#271616"/><path d="M77.467 14.005h29.444V.26H77.47v13.745z" fill="#e8202c"/><path d="M77.467 101.383h29.444V87.64H77.47v13.743z" fill="#211c1d"/><path d="M114.824 36.72h29.444V22.976h-29.444V36.72z" fill="#a4a6a9"/><path d="M114.824 58.983h29.444V45.24h-29.444v13.743z" fill="#7b7d82"/><path d="M114.824 79.724h29.444V65.98h-29.444v13.744z" fill="#505155"/><path d="M114.825 14.65h29.443V.904h-29.443V14.65z" fill="#d3d3d4"/><path d="M114.824 102.027h29.444V88.283h-29.444v13.744z" fill="#211c1d"/></svg>