<svg xmlns="http://www.w3.org/2000/svg" viewBox="0 0 1035.7333 229.52" height="229.52" width="1035.733"><defs><clipPath id="a"><path d="M0 0h7767.97v1721H0V0z"/></clipPath></defs><g clip-path="url(#a)" transform="matrix(.133 0 0 -.133 0 229.52)"><path d="M1714.3 127.09c-94.81 0-169.05 21.7-230.73 81.09l54.82 54.832c44.55-46.82 105.09-65.114 174.77-65.114 92.51 0 149.63 33.133 149.63 99.383 0 49.11-28.57 76.52-93.67 82.24l-92.52 7.997c-109.65 9.136-167.9 58.25-167.9 150.77 0 102.796 86.8 164.468 206.74 164.468 79.95 0 151.91-19.42 202.17-60.52l-53.69-53.68c-39.97 30.82-91.37 44.54-149.62 44.54-82.25 0-125.65-35.417-125.65-92.52 0-47.98 27.41-76.54 98.23-82.24l90.23-7.99c98.24-9.15 165.62-46.827 165.62-151.93 0-108.5-92.52-171.32-228.43-171.32m478.52 6.848c-95.95 0-143.92 67.4-143.92 150.77v344.94h-70.81v62.833h70.81v175.89h82.24V692.48h119.93v-62.832h-119.93V287c0-51.398 23.99-82.238 76.53-82.238h43.4v-70.82h-58.25m483.56 259.278h-157.62c-84.53 0-125.65-34.27-125.65-99.36 0-65.11 39.98-95.962 129.07-95.962 47.98 0 90.23 3.442 125.64 37.704 19.42 18.27 28.56 50.25 28.56 97.09v60.527zm0-259.28v53.69c-45.69-45.7-86.81-60.54-162.19-60.54-77.67 0-123.36 14.84-158.78 51.39-27.4 27.43-42.25 69.68-42.25 114.23 0 98.22 68.53 162.2 194.17 162.2h169.05v53.68c0 82.22-41.12 123.35-143.92 123.35-71.95 0-108.51-17.14-141.63-63.96l-55.97 51.39c50.26 65.11 107.37 83.38 198.75 83.38 150.76 0 225-65.09 225-187.3V133.94h-82.23m404.33-6.85c-141.63 0-249 95.95-249 287.832 0 191.887 107.37 287.828 249 287.828 77.67 0 126.78-20.55 185.03-83.38l-55.96-52.53c-42.26 46.832-75.39 62.808-129.07 62.808-54.83 0-100.51-21.687-130.21-63.957-26.27-36.55-36.55-79.96-36.55-150.763 0-70.813 10.28-114.223 36.55-150.774 29.7-42.257 75.38-63.957 130.21-63.957 53.68 0 86.81 17.13 129.07 63.958l55.96-53.686c-58.25-62.8-107.36-83.37-185.03-83.37m635.25 6.847l-178.19 287.84-109.65-125.64v-162.2h-82.24V947.2h82.24V403.512l253.57 292.398h102.8l-190.75-214.73 223.86-347.24h-101.64m433.36 418.572c-16.24 16.238-37.9 24.898-66.04 24.898-28.15 0-48.71-8.66-64.95-24.898-29.24-29.223-32.48-77.934-32.48-136.403 0-58.45 3.24-108.25 32.48-137.467 16.24-16.238 36.8-24.91 64.95-24.91 28.14 0 49.8 8.672 66.04 24.91 29.21 29.21 32.47 79.012 32.47 137.46 0 58.47-3.26 107.18-32.47 136.404zm109.33-356.14c-34.65-36.813-92.02-69.282-175.37-69.282-83.35 0-139.64 32.47-174.28 69.28-50.88 53.04-63.87 116.92-63.87 219.74 0 101.76 12.99 165.628 63.87 218.68 34.64 36.8 90.93 69.28 174.28 69.28s140.72-32.48 175.37-69.28c50.87-53.052 63.87-116.92 63.87-218.68 0-102.82-13-166.7-63.87-219.74m380.14-62.78h-110.42l-207.84 563.98h148.3L4583.58 349l113.66 348.57h148.3l-206.75-563.98m540.34 395.11c-15.15 33.562-46.55 58.448-94.19 58.448-47.62 0-79.02-24.886-94.16-58.45-8.67-20.57-11.93-35.71-13-60.62h214.34c-1.09 24.91-4.33 40.05-12.99 60.62zm-201.35-156.962c0-72.527 44.38-125.566 123.4-125.566 61.71 0 92.02 17.308 127.75 53.04l85.52-83.353c-57.38-57.377-112.59-88.77-214.34-88.77-133.16 0-260.89 60.61-260.89 289.02 0 184.033 99.59 287.96 245.72 287.96 156.97 0 245.74-114.75 245.74-269.55v-62.787h-352.9m729.35 172.124c-21.66 21.65-40.05 33.55-74.69 33.55-43.3 0-90.94-32.47-90.94-103.923V133.59h-140.73v563.98h137.49v-54.12c27.05 32.48 81.19 60.62 141.8 60.62 55.21 0 94.18-14.07 133.16-53.05l-106.09-107.16m679.51-410.27c-115.83 0-164.54 81.18-164.54 161.29v633.46h140.73V303.55c0-33.57 14.07-50.878 49.78-50.878h54.12V133.59h-80.09zm-335.38 456.582V133.59h-140.73v456.582h-58.45v107.156h58.45v70.375c0 80.098 49.79 161.28 164.54 161.28h80.11V809.92h-54.13c-33.55 0-49.79-18.402-49.79-50.88v-61.71h103.92V590.172h-103.92m739.85-37.66c-16.23 16.238-37.89 24.898-66.04 24.898-28.14 0-48.71-8.66-64.95-24.898-29.23-29.223-32.47-77.934-32.47-136.403 0-58.45 3.24-108.25 32.47-137.467 16.24-16.238 36.81-24.91 64.95-24.91 28.15 0 49.81 8.672 66.04 24.91 29.22 29.21 32.48 79.012 32.48 137.46 0 58.47-3.26 107.18-32.48 136.404zm109.33-356.14c-34.64-36.813-92.02-69.282-175.37-69.282-83.35 0-139.63 32.47-174.27 69.28-50.88 53.04-63.88 116.92-63.88 219.74 0 101.76 13 165.628 63.88 218.68 34.64 36.8 90.92 69.28 174.27 69.28 83.35 0 140.73-32.48 175.37-69.28 50.88-53.052 63.88-116.92 63.88-218.68 0-102.82-13-166.7-63.88-219.74m695.4-62.78h-115.82l-117.99 353.97-117.99-353.97h-115.83l-173.2 563.98h149.39L7195.32 349l114.76 348.57h102.82L7528.73 349l90.94 348.57h148.3l-172.13-563.98" fill="#100f0d"/><path d="M960.277 619.512L301.27 779.344l31.964 131.804 659.012-159.832-31.97-131.804" fill="#bc8f41"/><path d="M1004.46 777.19l-603.847 308.56 61.71 120.77 603.847-308.56-61.71-120.77" fill="#d0831a"/><path d="M1097.47 940.53l-510.673 446.15 89.226 102.13 510.677-446.14-89.23-102.14" fill="#f57b14"/><path d="M1237.96 1084.11L857.152 1645.2l112.22 76.16 380.808-561.09-112.22-76.16" fill="#f36717"/><path d="M949.727 454.66l-677.11 36.97 7.4 135.43 677.104-36.982-7.39-135.418" fill="#a18463"/><path d="M1090.12 135.648v561.864h135.5L1225.72 0H0l.027 698.102h135.62V135.648h954.473" fill="#7b7c82"/><path d="M270.742 270.738h682.72v135.62H270.74V270.74z" fill="#7b7c82"/></g></svg>