<svg xmlns="http://www.w3.org/2000/svg" viewBox="0 0 589.65332 129.92" height="129.92" width="589.653"><path d="M25.795 104.914H1.475c-.984 0-1.476-.25-1.476-1.13V1.592C0 .83.49.332 1.47.332h24.153c.988 0 1.645.383 1.645 1.26v6.29c0 .883-.497 1.133-1.477 1.133H14.95c-1.317 0-1.808.507-1.808 1.385v84.57c0 .88.49 1.262 1.642 1.262h10.844c.988 0 1.645.373 1.645 1.125v6.428c0 .75-.498 1.13-1.478 1.13" fill="#171513"/><path d="M81.49 63.53c-6.406 1.88-10.842 5.64-10.842 11.794V93.14c0 13.296-12.65 11.84-28.422 11.84h-2.463c-.99 0-1.642-.38-1.642-1.256v-6.148c0-.876.49-1.257 1.48-1.257h1.97c9.37 0 15.94 2.05 15.94-5.48v-16.9c0-5.28 3.62-12.55 11.01-15.18.5-.13.66-.38.66-.63s-.16-.63-.65-.88c-6.74-3.01-11.01-8.03-11.01-14.06V23.88C57.52 16.474 50.94 9 41.58 9H39.6c-.986 0-1.476-.375-1.476-1.25V1.6c0-.877.654-1.25 1.644-1.25h2.463c15.78 0 28.59 11.237 28.59 24.54v16.18c0 6.147 4.44 9.664 11.01 11.92 2.47.754 3.78.88 3.78 2.758v5.14c0 1.252-1.15 1.75-4.11 2.632" fill="#53afe6"/><path d="M49.922 45.468c0 1.425-1.29 2.594-2.863 2.594h-6.45c-1.58 0-2.86-1.17-2.86-2.594v-5.835c0-1.43 1.28-2.596 2.86-2.596h6.44c1.57 0 2.86 1.167 2.86 2.596v5.835m74.35 59.592c-9.28 0-16.56-2.21-22.59-8.252l5.36-5.573c4.36 4.764 10.29 6.63 17.11 6.63 9.06 0 14.65-3.38 14.65-10.114 0-4.99-2.8-7.78-9.17-8.36l-9.06-.81c-10.74-.93-16.44-5.92-16.44-15.33 0-10.45 8.5-16.72 20.24-16.72 7.83 0 14.87 1.98 19.79 6.16l-5.26 5.46c-3.916-3.13-8.948-4.53-14.65-4.53-8.05 0-12.306 3.61-12.306 9.41 0 4.88 2.684 7.79 9.622 8.37l8.83.82c9.613.93 16.213 4.76 16.213 15.455 0 11.035-9.06 17.42-22.37 17.42m67.323-.7V98c-3.91 4.643-9.39 7.084-15.54 7.084-5.93 0-10.853-1.862-14.21-5.344-3.913-3.95-5.586-9.41-5.586-16.03v-36.5h8.05v35.2c0 10.105 5.15 15.213 13.42 15.213 8.28 0 13.76-5.23 13.76-15.213V47.205h8.05v57.156h-7.94m59.497-4.29c-2.903 3.02-7.824 5-13.42 5-6.034 0-11.07-1.51-15.54-7.44v32.3h-8.057V47.21h8.05v6.74c4.476-6.04 9.51-7.435 15.548-7.435 5.597 0 10.518 1.98 13.42 4.998 5.596 5.805 6.718 15.335 6.718 24.28 0 8.946-1.12 18.467-6.715 24.28M235.98 53.95c-11.97 0-13.867 10.69-13.867 21.84s1.897 21.837 13.865 21.837 13.758-10.69 13.758-21.837c0-11.15-1.79-21.838-13.758-21.838m38.47 24.042c0 12.546 5.705 19.75 16.22 19.75 6.37 0 10.067-1.977 14.43-6.507l5.476 4.995c-5.59 5.813-10.736 8.83-20.13 8.83-14.543 0-24.05-9.06-24.05-29.274 0-18.475 8.616-29.273 22.593-29.273 14.21 0 22.59 10.686 22.59 27.648v3.835h-37.13zm27.4-15.8c-2.126-5.226-7.043-8.596-12.86-8.596-5.81 0-10.734 3.37-12.864 8.596-1.227 3.135-1.45 4.883-1.676 9.526h29.075c-.218-4.646-.447-6.394-1.677-9.53m52.002-4.06c-3.026-3.138-5.26-4.18-9.5-4.18-8.05 0-13.207 6.62-13.207 15.33v35.08h-8.04V47.206h8.04v6.97c3.03-4.76 9.07-7.665 15.44-7.665 5.26 0 9.29 1.28 13.21 5.35l-5.93 6.28m48.22 47.19v-5.37c-3.8 4.03-9.17 6.04-14.54 6.04-5.81 0-10.52-1.9-13.76-5.14-4.704-4.69-5.94-10.17-5.94-16.55V47.05h14.55v35.23c0 7.944 5.036 10.63 9.618 10.63 4.59 0 9.73-2.686 9.73-10.63V47.04h14.544v58.272h-14.2m48.717.673c-9.167 0-17.445-1.006-24.827-8.39l9.506-9.5c4.81 4.807 11.08 5.476 15.542 5.476 5.04 0 10.29-1.67 10.29-6.04 0-2.9-1.56-4.92-6.14-5.36l-9.18-.89C435.48 80.27 429 75.69 429 64.95c0-12.08 10.63-18.56 22.49-18.56 9.06 0 16.66 1.57 22.255 6.83l-8.95 9.06c-3.357-3.02-8.49-3.91-13.53-3.91-5.816 0-8.28 2.684-8.28 5.593 0 2.12.9 4.583 6.04 5.03l9.17.895c11.52 1.12 17.345 7.27 17.345 17.117 0 12.86-10.96 19.01-24.72 19.01m47.76-25.28c0 7.5 4.594 12.978 12.76 12.978 6.37 0 9.51-1.79 13.195-5.48l8.84 8.61c-5.93 5.925-11.63 9.17-22.152 9.17-13.75 0-26.947-6.26-26.947-29.865 0-19.01 10.29-29.746 25.392-29.746 16.213 0 25.38 11.857 25.38 27.848v6.49h-36.47zm20.8-16.22c-1.568-3.47-4.81-6.042-9.726-6.042-4.935 0-8.166 2.574-9.74 6.043-.887 2.123-1.223 3.69-1.347 6.26h22.15c-.11-2.576-.44-4.14-1.34-6.265m57.85-1.562c-2.24-2.24-4.14-3.47-7.72-3.47-4.47 0-9.39 3.36-9.39 10.74v35.12h-14.55V47.05h14.21v5.592c2.79-3.357 8.38-6.264 14.64-6.264 5.702 0 9.732 1.452 13.763 5.48L577.21 62.93" fill="#171513"/></svg>